<svg width="104" height="104" viewBox="0 0 104 104" fill="none" xmlns="http://www.w3.org/2000/svg">
  <path d="M0 16C0 7.16344 7.16344 0 16 0H88C96.8366 0 104 7.16344 104 16V88C104 96.8366 96.8366 104 88 104H16C7.16344 104 0 96.8366 0 88V16Z" fill="transparent"/>
  <path d="M85.8787 38.1987C79.0325 12.7915 59.2348 52.439 51.2771 30.3714C45.798 15.1814 23.2608 32.6205 17.8026 53.7801C14.6717 65.9123 20.777 73.6926 36.7706 63.345C49.4977 55.1107 57.3354 57.2136 55.9734 71.908C55.3681 78.4411 62.924 83.4505 74.0126 76.4791C86.5675 68.5892 89.6305 52.1572 85.8735 38.2039L85.8787 38.1987Z" fill="url(#paint0_linear_7286_230250)"/>
  <defs>
    <linearGradient id="paint0_linear_7286_230250" x1="31.6881" y1="32.9544" x2="79.5125" y2="72.2471" gradientUnits="userSpaceOnUse">
      <stop stop-color="#FF79A1"/>
      <stop offset="1" stop-color="#FF9A00"/>
    </linearGradient>
  </defs>
</svg>
